<svg width="26.0001" height="18.0002" viewBox="0 0 26.0001 18.0002" fill="none" xmlns="http://www.w3.org/2000/svg">
<g id="Group 427320852">
<path id="Vector" d="M2.7645 0C1.1375 0 0 1.11628 0 2.71642V10.4609C0 12.0594 1.1375 13.1771 2.7645 13.1771H13.0141V10.9052L12.3417 10.0245H3.77407C3.3063 10.0245 2.95226 9.65365 2.95226 9.16047V4.03015C2.95226 3.5364 3.3063 3.16384 3.77407 3.16384H10.8821L8.46759 0.000282467H2.7645V0Z" fill="#2A2A2B"/>
<path id="Vector_2" d="M26 6.26526V2.71614C26 1.36626 25.0505 0 23.2366 0H12.5275L14.9452 3.16751H22.2265C22.6932 3.16751 23.0477 3.53895 23.0477 4.03353V4.94842C23.0477 5.44245 22.6932 5.81417 22.2265 5.81417L12.8284 5.81078L15.3298 8.99072L19.4177 8.98902L22.6814 13.1771H25.7272V12.0817L23.169 8.99749L23.5233 8.9684C24.9808 8.84553 26 7.7349 26 6.26554" fill="#2A2A2B"/>
<path id="Vector_3" d="M1.30368 17.4285H1.5853C1.57726 17.4695 1.56519 17.5124 1.54909 17.5553C1.533 17.5994 1.50725 17.6494 1.47185 17.7042C1.43617 17.7593 1.39487 17.8079 1.349 17.8508C1.30341 17.8926 1.24333 17.9285 1.1693 17.9573C1.09581 17.9855 1.01534 17.9999 0.927368 17.9999C0.726742 17.9999 0.558303 17.9254 0.421781 17.7762C0.285258 17.6262 0.216863 17.4373 0.216863 17.2085C0.216863 16.9797 0.285258 16.7907 0.421781 16.641C0.558303 16.4913 0.726742 16.4167 0.927368 16.4167C1.00917 16.4167 1.08588 16.4297 1.15642 16.4554C1.22616 16.4809 1.2849 16.5136 1.33264 16.5532C1.38012 16.5924 1.42196 16.639 1.45763 16.691C1.49411 16.743 1.52227 16.7919 1.54158 16.8387C1.56036 16.8856 1.57511 16.932 1.58503 16.9774H1.30341C1.27551 16.9009 1.23018 16.8345 1.16796 16.7772C1.10627 16.7198 1.0258 16.6916 0.9271 16.6916C0.799161 16.6916 0.69402 16.7388 0.611677 16.8331C0.529603 16.9283 0.48803 17.0528 0.48803 17.2085C0.48803 17.3641 0.529335 17.4887 0.611677 17.5833C0.693752 17.6782 0.798892 17.7254 0.9271 17.7254C1.02714 17.7254 1.10841 17.6963 1.17064 17.637C1.23179 17.5788 1.27659 17.5087 1.30314 17.4285" fill="#2A2A2B"/>
<path id="Vector_4" d="M2.14947 17.384H2.588L2.38952 16.7685H2.34768L2.14947 17.384ZM1.64817 17.9783L2.17066 16.4389H2.56708L3.08903 17.9783H2.78675L2.67571 17.6481H2.06203L1.95099 17.9783H1.6479H1.64817Z" fill="#2A2A2B"/>
<path id="Vector_5" d="M3.54817 17.1863H3.9344C3.98778 17.1863 4.03391 17.164 4.07334 17.1194C4.11304 17.0747 4.13288 17.0196 4.13288 16.9555C4.13288 16.8843 4.11357 16.8273 4.07468 16.7812C4.03579 16.7361 3.98885 16.7135 3.9344 16.7135H3.54817V17.1863ZM3.27674 17.9783V16.4389H3.94567C4.07602 16.4389 4.18572 16.4861 4.27236 16.5832C4.3606 16.6787 4.40485 16.803 4.40485 16.9558C4.40485 17.0996 4.36328 17.216 4.2804 17.3061C4.19726 17.397 4.09641 17.4447 3.97625 17.4501L4.4467 17.9783H4.10204L3.63239 17.4501H3.54844V17.9783H3.27727H3.27674Z" fill="#2A2A2B"/>
<path id="Vector_6" d="M5.01032 17.9783L4.50956 16.4389H4.81237L5.18788 17.6264H5.22999L5.60576 16.4389H5.90831L5.40728 17.9783H5.01032Z" fill="#2A2A2B"/>
<path id="Vector_7" d="M6.37806 16.4389H6.10689V17.9783H6.37806V16.4389Z" fill="#2A2A2B"/>
<path id="Vector_8" d="M6.72319 17.9783V16.4389H6.99436V17.7035H7.68341V17.9783H6.72319Z" fill="#2A2A2B"/>
<path id="Vector_9" d="M7.91316 17.9783V16.4389H8.18405V17.7035H8.87391V17.9783H7.91316Z" fill="#2A2A2B"/>
<path id="Vector_10" d="M9.10355 17.9783V16.4389H10.085V16.7027H9.37525V17.0767H10.0428V17.3405H9.37525V17.7145H10.085V17.9783H9.10355Z" fill="#2A2A2B"/>
<path id="Vector_11" d="M11.2125 17.1863H11.5996C11.6521 17.1863 11.6983 17.164 11.7382 17.1194C11.7777 17.0747 11.7975 17.0196 11.7975 16.9555C11.7975 16.8843 11.7782 16.8273 11.7393 16.7812C11.6999 16.7361 11.6532 16.7135 11.5996 16.7135H11.2125V17.1863ZM10.9411 17.9783V16.4389H11.6095C11.7404 16.4389 11.8493 16.4861 11.9373 16.5832C12.0252 16.6787 12.0695 16.803 12.0695 16.9558C12.0695 17.0996 12.0282 17.216 11.9448 17.3061C11.8624 17.397 11.7608 17.4447 11.6409 17.4501L12.1108 17.9783H11.7661L11.2968 17.4501H11.2128V17.9783H10.9414H10.9411Z" fill="#2A2A2B"/>
<path id="Vector_12" d="M12.7062 17.384H13.145L12.946 16.7685H12.9049L12.7062 17.384ZM12.2049 17.9783L12.7271 16.4389H13.1238L13.6457 17.9783H13.3429L13.2322 17.6481H12.6179L12.5074 17.9783H12.2044H12.2049Z" fill="#2A2A2B"/>
<path id="Vector_13" d="M14.8157 17.4285H15.0973C15.0895 17.4695 15.0764 17.5124 15.0608 17.5553C15.045 17.5994 15.0193 17.6494 14.9836 17.7042C14.9482 17.7593 14.9069 17.8079 14.8613 17.8508C14.8157 17.8926 14.7556 17.9285 14.6816 17.9573C14.6078 17.9855 14.5276 17.9999 14.4397 17.9999C14.2393 17.9999 14.0703 17.9254 13.9341 17.7762C13.7973 17.6262 13.7297 17.4373 13.7297 17.2085C13.7297 16.9797 13.7973 16.7907 13.9341 16.641C14.0703 16.4913 14.2393 16.4167 14.4397 16.4167C14.5215 16.4167 14.5979 16.4297 14.6679 16.4554C14.7384 16.4809 14.7966 16.5136 14.8447 16.5532C14.8916 16.5924 14.934 16.639 14.9704 16.691C15.0056 16.743 15.0343 16.7919 15.0539 16.8387C15.0732 16.8856 15.0877 16.932 15.0973 16.9774H14.8157C14.7873 16.9009 14.7422 16.8345 14.681 16.7772C14.6188 16.7198 14.5389 16.6916 14.4397 16.6916C14.3117 16.6916 14.2066 16.7388 14.124 16.8331C14.0422 16.9283 14.0008 17.0528 14.0008 17.2085C14.0008 17.3641 14.0419 17.4887 14.124 17.5833C14.2066 17.6782 14.3114 17.7254 14.4397 17.7254C14.5394 17.7254 14.6207 17.6963 14.6827 17.637C14.7443 17.5788 14.7889 17.5087 14.8157 17.4285Z" fill="#2A2A2B"/>
<path id="Vector_14" d="M15.6298 16.4389H15.3581V17.9783H15.6298V16.4389Z" fill="#2A2A2B"/>
<path id="Vector_15" d="M15.974 17.9783V16.4389H16.3395L16.8722 17.5055H16.9141V16.4389H17.1855V17.9783H16.8199L16.2878 16.9109H16.2454V17.9783H15.974Z" fill="#2A2A2B"/>
<path id="Vector_16" d="M18.6377 17.9783L18.616 17.8026H18.6052C18.5792 17.839 18.5444 17.8718 18.5014 17.9014C18.4062 17.9672 18.2989 18 18.1774 18C17.9771 18 17.8089 17.9254 17.6724 17.7763C17.5361 17.6263 17.468 17.4373 17.468 17.2085C17.468 16.9798 17.5361 16.7908 17.6724 16.6408C17.8089 16.4911 17.9771 16.4165 18.1774 16.4165C18.2727 16.4165 18.3593 16.4335 18.4387 16.4668C18.5178 16.5004 18.5843 16.5459 18.6377 16.6015C18.6903 16.6569 18.7326 16.7154 18.7656 16.7772C18.7981 16.8385 18.8217 16.9018 18.8351 16.9665H18.5535C18.4725 16.7834 18.3469 16.6916 18.1772 16.6916C18.0492 16.6916 17.9444 16.7388 17.8617 16.8332C17.7799 16.9283 17.7389 17.0526 17.7389 17.2085C17.7389 17.3645 17.7797 17.4887 17.8617 17.5834C17.9444 17.6783 18.049 17.7254 18.1772 17.7254C18.241 17.7254 18.3 17.713 18.3526 17.6882C18.4054 17.663 18.447 17.6328 18.4781 17.5961C18.5084 17.5608 18.532 17.5249 18.5489 17.4887C18.5658 17.4529 18.5739 17.4221 18.5739 17.395V17.384H18.2085V17.1645H18.8456V17.9783H18.6372H18.6377Z" fill="#2A2A2B"/>
</g>
</svg>
